# xmcd
# Copyright (C) 1995-1998 Ti Kan
#
# Track frame offsets:
#       150
#       17538
#       34151
#
# Disc length: 681 seconds
#
# Revision: 0
# Processed by: cddbd v1.4PL0 Copyright (c) Steve Scherf et al.
# Submitted via: CD-Transfer v1.0
#
DISCID=1802a703
DTITLE=Patric Kaiser - How Can I Make You Love Me
DYEAR=2002
DGENRE=
TTITLE0=How Can I Make You Love Me
TTITLE1=Count On Me
TTITLE2=How Can I Make You Love Me (Instr.)
EXTD=
EXTT0=
EXTT1=
EXTT2=
PLAYORDER=
